<?xml version="1.0" encoding="UTF-8"?>
<svg width="85px" height="91px" viewBox="0 0 85 91" version="1.1" xmlns="http://www.w3.org/2000/svg" xmlns:xlink="http://www.w3.org/1999/xlink">
    <!-- Generator: Sketch 57.1 (83088) - https://sketch.com -->
    <title>cloudi</title>
    <desc>Created with Sketch.</desc>
    <g id="Page-1" stroke="none" stroke-width="1" fill="none" fill-rule="evenodd">
        <g id="新增資料夾" transform="translate(-58.000000, -83.000000)">
            <g id="sidebar" transform="translate(-29.000000, 0.000000)">
                <g id="cloudi" transform="translate(89.300000, 85.000000)">
                    <g id="Group" stroke="#009FB7" stroke-width="4">
                        <path d="M44.2881356,0 C56.3615322,0 66.4526621,8.95192377 68.9209117,20.9062262 C75.6976432,24.0394721 80.4,30.9020346 80.4,38.8636364 C80.4,49.7838121 71.5534502,58.6363636 60.640678,58.6363636 C55.2863718,58.6363636 50.4294742,56.5052594 46.8708423,53.0444514 C46.0224624,53.1350849 45.1604732,53.1818182 44.2881356,53.1818182 C37.2614689,53.1818182 30.906234,50.1496301 26.3343827,45.2581063 C23.5869638,48.4405381 19.523436,50.4545455 14.9898305,50.4545455 C6.71117572,50.4545455 0,43.7388167 0,35.4545455 C0,29.5311035 3.43113856,24.4095907 8.41308246,21.9716157 C8.25808163,21.2641167 8.17627119,20.5279824 8.17627119,19.7727273 C8.17627119,14.1243605 12.7520728,9.54545455 18.3966102,9.54545455 C20.3815632,9.54545455 22.234352,10.111701 23.8024626,11.0915765 C28.3770332,4.37452279 35.8482488,0 44.2881356,0 Z" id="Combined-Shape" fill="#FFFFFF" stroke-linejoin="round"></path>
                        <rect id="Rectangle" fill="#FED766" x="39.5186441" y="35.4545455" width="9.53898305" height="24.5454545" rx="4.76949153"></rect>
                        <rect id="Rectangle" fill="#FED766" x="29.979661" y="35.4545455" width="9.53898305" height="24.5454545" rx="4.76949153"></rect>
                        <rect id="Rectangle" fill="#FED766" x="20.440678" y="35.4545455" width="9.53898305" height="24.5454545" rx="4.76949153"></rect>
                    </g>
                    <path d="M19.964325,76.618 C19.4155923,76.0299971 18.8844551,75.638001 18.3708975,75.442 C17.8573399,75.245999 17.3402726,75.148 16.81968,75.148 C16.0458261,75.148 15.3458506,75.2844986 14.7197325,75.5575 C14.0936144,75.8305014 13.5554423,76.2084976 13.1052,76.6915 C12.6549577,77.1745024 12.3067287,77.7379968 12.0605025,78.382 C11.8142763,79.0260032 11.691165,79.7189963 11.691165,80.461 C11.691165,81.259004 11.8142763,81.9939966 12.0605025,82.666 C12.3067287,83.3380034 12.6549577,83.9189975 13.1052,84.409 C13.5554423,84.8990024 14.0936144,85.2839986 14.7197325,85.564 C15.3458506,85.8440014 16.0458261,85.984 16.81968,85.984 C17.424693,85.984 18.0121097,85.8405014 18.5819475,85.5535 C19.1517853,85.2664986 19.6829225,84.8080031 20.175375,84.178 L22.370295,85.732 C21.6949316,86.6560046 20.8718449,87.3279979 19.90101,87.748 C18.9301751,88.1680021 17.8960405,88.378 16.798575,88.378 C15.6448292,88.378 14.5860723,88.1925019 13.6222725,87.8215 C12.6584727,87.4504981 11.828351,86.9255034 11.1318825,86.2465 C10.435414,85.5674966 9.89020697,84.7520048 9.496245,83.8 C9.10228303,82.8479952 8.905305,81.7910058 8.905305,80.629 C8.905305,79.438994 9.10228303,78.3575049 9.496245,77.3845 C9.89020697,76.4114951 10.435414,75.5820034 11.1318825,74.896 C11.828351,74.2099966 12.6584727,73.6815019 13.6222725,73.3105 C14.5860723,72.9394981 15.6448292,72.754 16.798575,72.754 C17.8116201,72.754 18.7507832,72.9324982 19.6160925,73.2895 C20.4814018,73.6465018 21.2869013,74.2519957 22.032615,75.106 L19.964325,76.618 Z M24.2004,72.124 L26.733,72.124 L26.733,88 L24.2004,88 L24.2004,72.124 Z M29.3650951,82.96 C29.3650951,82.161996 29.5093111,81.4375033 29.7977476,80.7865 C30.086184,80.1354967 30.4766226,79.5790023 30.9690751,79.117 C31.4615275,78.6549977 32.0454267,78.2980013 32.7207901,78.046 C33.3961535,77.7939987 34.1137163,77.668 34.8735001,77.668 C35.6332839,77.668 36.3508467,77.7939987 37.0262101,78.046 C37.7015735,78.2980013 38.2854726,78.6549977 38.7779251,79.117 C39.2703775,79.5790023 39.6608161,80.1354967 39.9492526,80.7865 C40.237689,81.4375033 40.3819051,82.161996 40.3819051,82.96 C40.3819051,83.758004 40.237689,84.4824967 39.9492526,85.1335 C39.6608161,85.7845033 39.2703775,86.3409977 38.7779251,86.803 C38.2854726,87.2650023 37.7015735,87.6219987 37.0262101,87.874 C36.3508467,88.1260013 35.6332839,88.252 34.8735001,88.252 C34.1137163,88.252 33.3961535,88.1260013 32.7207901,87.874 C32.0454267,87.6219987 31.4615275,87.2650023 30.9690751,86.803 C30.4766226,86.3409977 30.086184,85.7845033 29.7977476,85.1335 C29.5093111,84.4824967 29.3650951,83.758004 29.3650951,82.96 Z M31.8976951,82.96 C31.8976951,83.352002 31.9645269,83.7299982 32.0981926,84.094 C32.2318582,84.4580018 32.4288363,84.7799986 32.6891326,85.06 C32.9494289,85.3400014 33.2624832,85.5639992 33.6283051,85.732 C33.9941269,85.9000008 34.4091878,85.984 34.8735001,85.984 C35.3378124,85.984 35.7528732,85.9000008 36.1186951,85.732 C36.4845169,85.5639992 36.7975713,85.3400014 37.0578676,85.06 C37.3181639,84.7799986 37.5151419,84.4580018 37.6488076,84.094 C37.7824732,83.7299982 37.8493051,83.352002 37.8493051,82.96 C37.8493051,82.567998 37.7824732,82.1900018 37.6488076,81.826 C37.5151419,81.4619982 37.3181639,81.1400014 37.0578676,80.86 C36.7975713,80.5799986 36.4845169,80.3560008 36.1186951,80.188 C35.7528732,80.0199992 35.3378124,79.936 34.8735001,79.936 C34.4091878,79.936 33.9941269,80.0199992 33.6283051,80.188 C33.2624832,80.3560008 32.9494289,80.5799986 32.6891326,80.86 C32.4288363,81.1400014 32.2318582,81.4619982 32.0981926,81.826 C31.9645269,82.1900018 31.8976951,82.567998 31.8976951,82.96 Z M52.2157801,88 L49.8098101,88 L49.8098101,86.383 L49.7676001,86.383 C49.5284089,86.8870025 49.1625926,87.3244981 48.6701401,87.6955 C48.1776877,88.0665019 47.5093693,88.252 46.6651651,88.252 C45.9898017,88.252 45.416455,88.1435011 44.9451076,87.9265 C44.4737603,87.7094989 44.0903566,87.4155019 43.7948851,87.0445 C43.4994136,86.6734981 43.2883657,86.2500024 43.1617351,85.774 C43.0351045,85.2979976 42.9717901,84.8010026 42.9717901,84.283 L42.9717901,77.92 L45.5043901,77.92 L45.5043901,83.023 C45.5043901,83.3030014 45.51846,83.6144983 45.5466001,83.9575 C45.5747403,84.3005017 45.648607,84.6224985 45.7682026,84.9235 C45.8877982,85.2245015 46.0707064,85.476499 46.3169326,85.6795 C46.5631588,85.882501 46.9113879,85.984 47.3616301,85.984 C47.7837322,85.984 48.1389962,85.9140007 48.4274326,85.774 C48.7158691,85.6339993 48.9550567,85.4450012 49.1450026,85.207 C49.3349486,84.9689988 49.4721297,84.6960015 49.5565501,84.388 C49.6409705,84.0799985 49.6831801,83.7580017 49.6831801,83.422 L49.6831801,77.92 L52.2157801,77.92 L52.2157801,88 Z M63.3320852,86.488 L63.2898752,86.488 C62.9240533,87.1040031 62.4316082,87.5519986 61.8125252,87.832 C61.1934421,88.1120014 60.5251237,88.252 59.8075502,88.252 C59.0196262,88.252 58.3196507,88.1155014 57.7076027,87.8425 C57.0955546,87.5694986 56.5714523,87.1950024 56.1352802,86.719 C55.699108,86.2429976 55.3684663,85.6830032 55.1433452,85.039 C54.918224,84.3949968 54.8056652,83.7020037 54.8056652,82.96 C54.8056652,82.2179963 54.925259,81.5250032 55.1644502,80.881 C55.4036413,80.2369968 55.7378005,79.6770024 56.1669377,79.201 C56.5960748,78.7249976 57.1131421,78.3505014 57.7181552,78.0775 C58.3231652,77.8044986 58.9844516,77.668 59.7020252,77.668 C60.1804075,77.668 60.6025033,77.7169995 60.9683252,77.815 C61.334147,77.9130005 61.6577537,78.0389992 61.9391552,78.193 C62.2205566,78.3470008 62.4597442,78.5114991 62.6567252,78.6865 C62.8537061,78.8615009 63.0155095,79.0329992 63.1421402,79.201 L63.2054552,79.201 L63.2054552,72.124 L65.7380552,72.124 L65.7380552,88 L63.3320852,88 L63.3320852,86.488 Z M57.3382652,82.96 C57.3382652,83.352002 57.405097,83.7299982 57.5387627,84.094 C57.6724283,84.4580018 57.8694063,84.7799986 58.1297027,85.06 C58.389999,85.3400014 58.7030533,85.5639992 59.0688752,85.732 C59.434697,85.9000008 59.8497578,85.984 60.3140702,85.984 C60.7783825,85.984 61.1934433,85.9000008 61.5592652,85.732 C61.925087,85.5639992 62.2381413,85.3400014 62.4984377,85.06 C62.758734,84.7799986 62.955712,84.4580018 63.0893777,84.094 C63.2230433,83.7299982 63.2898752,83.352002 63.2898752,82.96 C63.2898752,82.567998 63.2230433,82.1900018 63.0893777,81.826 C62.955712,81.4619982 62.758734,81.1400014 62.4984377,80.86 C62.2381413,80.5799986 61.925087,80.3560008 61.5592652,80.188 C61.1934433,80.0199992 60.7783825,79.936 60.3140702,79.936 C59.8497578,79.936 59.434697,80.0199992 59.0688752,80.188 C58.7030533,80.3560008 58.389999,80.5799986 58.1297027,80.86 C57.8694063,81.1400014 57.6724283,81.4619982 57.5387627,81.826 C57.405097,82.1900018 57.3382652,82.567998 57.3382652,82.96 Z M68.8977752,77.92 L71.4303752,77.92 L71.4303752,88 L68.8977752,88 L68.8977752,77.92 Z M68.5389902,74.497 C68.5389902,74.090998 68.6902412,73.7375015 68.9927477,73.4365 C69.2952542,73.1354985 69.6786579,72.985 70.1429702,72.985 C70.6072825,72.985 70.9977211,73.1284986 71.3142977,73.4155 C71.6308743,73.7025014 71.7891602,74.0629978 71.7891602,74.497 C71.7891602,74.9310022 71.6308743,75.2914986 71.3142977,75.5785 C70.9977211,75.8655014 70.6072825,76.009 70.1429702,76.009 C69.6786579,76.009 69.2952542,75.8585015 68.9927477,75.5575 C68.6902412,75.2564985 68.5389902,74.903002 68.5389902,74.497 Z" id="Cloudi" fill="#009FB7" fill-rule="nonzero"></path>
                </g>
            </g>
        </g>
    </g>
</svg>