<?xml version="1.0" encoding="UTF-8"?>
<svg width="201px" height="217px" viewBox="0 0 201 217" version="1.1" xmlns="http://www.w3.org/2000/svg" xmlns:xlink="http://www.w3.org/1999/xlink">
    <!-- Generator: Sketch 57.1 (83088) - https://sketch.com -->
    <title>Mask + Mask Mask</title>
    <desc>Created with Sketch.</desc>
    <defs>
        <rect id="path-1" x="0" y="0" width="201" height="218"></rect>
    </defs>
    <g id="Page-1" stroke="none" stroke-width="1" fill="none" fill-rule="evenodd">
        <g id="新增資料夾" transform="translate(-1.000000, -468.000000)">
            <g id="sidebar" transform="translate(-29.000000, 0.000000)">
                <g id="Mask-+-Mask-Mask" transform="translate(30.005000, 468.000000)">
                    <mask id="mask-2" fill="white">
                        <use xlink:href="#path-1"></use>
                    </mask>
                    <g id="Mask"></g>
                    <path d="M181.632458,7 C222.379005,7 256.435784,36.9213062 264.767361,76.878465 C287.63909,87.3545377 303.51,110.29386 303.51,136.906977 C303.51,173.409146 273.652894,203 236.822288,203 C222.766695,203 209.726723,198.690389 198.974249,191.331702 C191.66322,206.285954 171.932653,217 148.74,217 C119.322553,217 95.475,199.762963 95.475,178.5 C95.475,176.962392 95.5997061,175.445837 95.8422065,173.95533 C91.6675612,175.061627 87.2785858,175.651163 82.750678,175.651163 C54.810218,175.651163 32.16,153.202928 32.16,125.511628 C32.16,105.711564 43.7402753,88.5920982 60.5545511,80.4429133 C60.0308611,78.0767296 59.7549153,75.6168144 59.7549153,73.0930233 C59.7549153,54.2125911 75.1982457,38.9069767 94.2485593,38.9069767 C100.947496,38.9069767 107.200416,40.7995744 112.492648,44.074689 C127.933068,21.6220991 153.148168,7 181.632458,7 Z" id="Mask" fill-opacity="0.51057146" fill="#FFFFFF" mask="url(#mask-2)"></path>
                    <path d="M52.2344492,0 C74.4187772,0 92.9608669,16.1820724 97.4968451,37.7916981 C109.94924,43.4571453 118.59,55.8630638 118.59,70.255814 C118.59,89.9967828 102.334465,106 82.2822458,106 C74.672057,106 67.608721,103.694988 61.7732846,99.7554382 C57.8702729,108.039467 46.986194,114 34.17,114 C18.073661,114 5.025,104.59798 5.025,93 C5.025,92.106577 5.10243112,91.2261849 5.25272176,90.3621176 C3.06247232,90.9154429 0.765501286,91.2093023 -1.60118644,91.2093023 C-16.8132146,91.2093023 -29.145,79.0689307 -29.145,64.0930233 C-29.145,53.3848595 -22.8402238,44.126398 -13.6858322,39.7191689 C-13.970859,38.4395042 -14.1211017,37.1091183 -14.1211017,35.744186 C-14.1211017,25.5333401 -5.71306621,17.255814 4.65877119,17.255814 C8.30563487,17.255814 11.7097116,18.2791734 14.5908694,20.0501086 C22.9974074,7.90827735 36.7259362,0 52.2344492,0 Z" id="Mask" fill-opacity="0.51057146" fill="#FFFFFF" mask="url(#mask-2)"></path>
                </g>
            </g>
        </g>
    </g>
</svg>