<?xml version="1.0" encoding="UTF-8"?>
<svg width="18px" height="17px" viewBox="0 0 18 17" version="1.1" xmlns="http://www.w3.org/2000/svg" xmlns:xlink="http://www.w3.org/1999/xlink">
    <!-- Generator: Sketch 57.1 (83088) - https://sketch.com -->
    <title>star</title>
    <desc>Created with Sketch.</desc>
    <g id="Page-1" stroke="none" stroke-width="1" fill="none" fill-rule="evenodd">
        <g id="首頁" transform="translate(-407.000000, -220.000000)" stroke="#FED766">
            <path d="M413.264762,225.33288 C413.566522,225.086983 414.920397,220.981821 415.989697,221 C417.058998,221.018422 418.175132,224.98885 418.713837,225.33288 C419.072973,225.562234 420.511015,225.802225 423.027962,226.052855 C423.570512,226.124316 423.88597,226.322523 423.974335,226.647475 C424.0627,226.972427 423.922885,227.328318 423.554891,227.71515 L421.120294,230.008242 C420.890989,230.165274 420.723915,230.353308 420.619071,230.572347 C420.514228,230.791385 420.506333,231.054443 420.595387,231.361521 L421.188137,234.721883 C421.234206,235.268646 421.167479,235.617917 420.987956,235.769697 C420.718672,235.997367 420.289197,236.07894 419.992194,235.910222 C419.794192,235.797743 418.723903,235.247803 416.781328,234.260402 C416.505958,234.098859 416.244008,234.012213 415.995477,234.000464 C415.746945,233.988715 415.440094,234.104917 415.074922,234.349068 L412.450729,235.652816 C411.799014,235.983267 411.36569,236.069069 411.150756,235.910222 C410.828357,235.671952 410.751466,235.272774 410.833571,234.617105 C410.888308,234.179993 411.073409,233.152334 411.388875,231.53413 C411.503436,231.239872 411.538482,230.964977 411.494015,230.709444 C411.449547,230.45391 411.26096,230.207161 410.928253,229.969195 L408.514704,227.609113 C408.137548,227.323922 407.967667,227.096063 408.005059,226.925534 C408.061148,226.669741 408.011193,226.109276 408.886014,226.052855 C409.469228,226.015241 410.641663,225.885432 412.403317,225.663428 C412.776441,225.606995 413.063589,225.496812 413.264762,225.33288 Z" id="star"></path>
        </g>
    </g>
</svg>