<?xml version="1.0" encoding="UTF-8"?>
<svg width="16px" height="15px" viewBox="0 0 16 15" version="1.1" xmlns="http://www.w3.org/2000/svg" xmlns:xlink="http://www.w3.org/1999/xlink">
    <!-- Generator: Sketch 57.1 (83088) - https://sketch.com -->
    <title>star-active</title>
    <desc>Created with Sketch.</desc>
    <g id="Page-1" stroke="none" stroke-width="1" fill="none" fill-rule="evenodd">
        <g id="首頁" transform="translate(-382.000000, -263.000000)" fill="#FED766" fill-rule="nonzero">
            <g id="star-active" transform="translate(382.000000, 263.000000)">
                <path d="M8.7724691,0.470891048 L10.5770664,4.05545406 C10.7025572,4.30476376 10.9451949,4.47751378 11.2258804,4.51742951 L15.2612763,5.09228139 C15.9681632,5.19305224 16.2501836,6.0443696 15.7388755,6.53284647 L12.8188789,9.32302111 C12.6159576,9.51703771 12.5231746,9.79677497 12.5712349,10.070623 L13.2604328,14.0105014 C13.3812511,14.70052 12.642324,15.2266223 12.0101977,14.9010802 L8.40100308,13.0410728 C8.15002154,12.9118374 7.84997846,12.9118374 7.59899692,13.0410728 L3.98980232,14.9010802 C3.35767595,15.2269495 2.61874893,14.70052 2.73956717,14.0105014 L3.42876514,10.070623 C3.47682543,9.79677497 3.38404237,9.51703771 3.18112112,9.32302111 L0.261124496,6.53284647 C-0.250183634,6.04404242 0.0318368423,5.19272506 0.73872367,5.09228139 L4.77411963,4.51742951 C5.05480509,4.47751378 5.29744283,4.30476376 5.4229336,4.05545406 L7.2275309,0.470891048 C7.54326033,-0.156963683 8.45640592,-0.156963683 8.7724691,0.470891048 Z" id="Path"></path>
            </g>
        </g>
    </g>
</svg>