<?xml version="1.0" encoding="UTF-8"?>
<svg width="58px" height="46px" viewBox="0 0 58 46" version="1.1" xmlns="http://www.w3.org/2000/svg" xmlns:xlink="http://www.w3.org/1999/xlink">
    <!-- Generator: Sketch 57.1 (83088) - https://sketch.com -->
    <title>storage</title>
    <desc>Created with Sketch.</desc>
    <defs>
        <path d="M28.7517391,0 C36.4943575,0 42.9657735,5.70832067 44.5487821,13.3312012 C48.8946707,15.3293411 51.9104348,19.7055424 51.9104348,24.7826087 C51.9104348,31.746199 46.2371039,37.3913043 39.2386957,37.3913043 C36.5739692,37.3913043 34.1013519,36.5728796 32.0608789,35.1748711 C30.6438455,37.992048 26.9579357,40 22.6343478,40 C17.0838861,40 12.5843478,36.6908003 12.5843478,32.6086957 C12.5843478,32.3335437 12.6047908,32.0619034 12.6446207,31.7945513 C11.7943377,32.0421307 10.8939398,32.173913 9.9626087,32.173913 C4.65347138,32.173913 0.349565217,27.8914193 0.349565217,22.6086957 C0.349565217,18.8311713 2.55026876,15.5650916 5.7455638,14.010568 C5.64550763,13.5597155 5.59304348,13.0903019 5.59304348,12.6086957 C5.59304348,9.00683859 8.52752496,6.08695652 12.1473913,6.08695652 C13.4205123,6.08695652 14.6088543,6.44813314 15.6145719,7.07312795 C18.5475049,2.78976914 23.3389912,0 28.7517391,0 Z" id="path-1"></path>
    </defs>
    <g id="Page-1" stroke="none" stroke-width="1" fill="none" fill-rule="evenodd">
        <g id="新增資料夾" transform="translate(-69.000000, -701.000000)">
            <g id="sidebar" transform="translate(-29.000000, 0.000000)">
                <g id="storage" transform="translate(96.335000, 704.000000)">
                    <path d="M33.4271739,0 C41.1697923,0 47.6412083,5.70832067 49.2242169,13.3312012 C53.5701055,15.3293411 56.5858696,19.7055424 56.5858696,24.7826087 C56.5858696,31.746199 50.9125387,37.3913043 43.9141304,37.3913043 C41.249404,37.3913043 38.7767867,36.5728796 36.7363137,35.1748711 C35.3192803,37.992048 31.6333704,40 27.3097826,40 C21.7593209,40 17.2597826,36.6908003 17.2597826,32.6086957 C17.2597826,32.3335437 17.2802256,32.0619034 17.3200555,31.7945513 C16.4697725,32.0421307 15.5693746,32.173913 14.6380435,32.173913 C9.32890617,32.173913 5.025,27.8914193 5.025,22.6086957 C5.025,18.8311713 7.22570354,15.5650916 10.4209986,14.010568 C10.3209424,13.5597155 10.2684783,13.0903019 10.2684783,12.6086957 C10.2684783,9.00683859 13.2029597,6.08695652 16.8228261,6.08695652 C18.0959471,6.08695652 19.284289,6.44813314 20.2900067,7.07312795 C23.2229397,2.78976914 28.014426,0 33.4271739,0 Z" id="Combined-Shape" stroke="#009FB7" stroke-width="6" fill="#FFFFFF" stroke-linejoin="round"></path>
                    <g id="Rectangle" transform="translate(4.675435, 0.000000)">
                        <mask id="mask-2" fill="white">
                            <use xlink:href="#path-1"></use>
                        </mask>
                        <use id="Mask" fill="#FFFFFF" xlink:href="#path-1"></use>
                        <rect fill="#009FB7" mask="url(#mask-2)" x="-4.02" y="21.7391304" width="57.6782609" height="20"></rect>
                    </g>
                    <g id="Rectangle" transform="translate(0.000000, 21.000000)"></g>
                </g>
            </g>
        </g>
    </g>
</svg>